<svg width="34" height="38" viewBox="0 0 34 38" fill="none" xmlns="http://www.w3.org/2000/svg">
<path d="M17 0C12.4913 0 8.1673 1.97017 4.97918 5.4771C1.79107 8.98403 0 13.7405 0 18.7C0 23.6595 1.79107 28.416 4.97918 31.9229C8.1673 35.4298 12.4913 37.4 17 37.4C17.5636 37.4 18.1041 37.1537 18.5026 36.7154C18.9011 36.277 19.125 35.6824 19.125 35.0625C19.125 34.4426 18.9011 33.848 18.5026 33.4096C18.1041 32.9713 17.5636 32.725 17 32.725C14.4783 32.725 12.0132 31.9024 9.91648 30.3614C7.81975 28.8203 6.18555 26.6299 5.22053 24.0671C4.25552 21.5044 4.00302 18.6844 4.49499 15.9639C4.98695 13.2433 6.20127 10.7443 7.98438 8.78283C9.7675 6.8214 12.0393 5.48564 14.5126 4.94449C16.9858 4.40333 19.5494 4.68107 21.8792 5.74259C24.209 6.80411 26.2002 8.60173 27.6012 10.9081C29.0022 13.2145 29.75 15.9261 29.75 18.7V25.7125C29.75 26.3324 29.5261 26.927 29.1276 27.3654C28.7291 27.8037 28.1886 28.05 27.625 28.05C27.0614 28.05 26.5209 27.8037 26.1224 27.3654C25.7239 26.927 25.5 26.3324 25.5 25.7125V18.7C25.5 16.8507 25.0015 15.043 24.0675 13.5054C23.1335 11.9678 21.806 10.7694 20.2528 10.0617C18.6996 9.35405 16.9906 9.16889 15.3417 9.52966C13.6929 9.89043 12.1783 10.7809 10.9896 12.0886C9.80084 13.3962 8.9913 15.0622 8.66332 16.8759C8.33535 18.6896 8.50368 20.5696 9.14702 22.2781C9.79036 23.9866 10.8798 25.4468 12.2776 26.4742C13.6755 27.5016 15.3189 28.05 17 28.05C18.532 28.0418 20.0328 27.5732 21.3403 26.6949C21.5629 28.4511 22.3833 30.0487 23.6358 31.1649C24.8883 32.2811 26.4793 32.8326 28.0873 32.7078C29.6952 32.583 31.2001 31.7913 32.2977 30.4928C33.3953 29.1942 34.0037 27.4856 34 25.7125V18.7C33.9955 13.742 32.203 8.98837 29.0159 5.4825C25.8287 1.97663 21.5073 0.00488883 17 0V0ZM17 23.375C16.1594 23.375 15.3377 23.1008 14.6388 22.5871C13.9399 22.0734 13.3952 21.3433 13.0735 20.489C12.7518 19.6348 12.6677 18.6948 12.8317 17.788C12.9956 16.8811 13.4004 16.0481 13.9948 15.3943C14.5892 14.7405 15.3464 14.2952 16.1709 14.1148C16.9953 13.9344 17.8498 14.027 18.6264 14.3809C19.403 14.7347 20.0667 15.3339 20.5337 16.1027C21.0007 16.8715 21.25 17.7754 21.25 18.7C21.2492 19.9396 20.8012 21.1282 20.0044 22.0048C19.2075 22.8814 18.1269 23.3742 17 23.375Z" fill="black"/>
</svg>
