<svg width="34" height="38" viewBox="0 0 34 38" fill="none" xmlns="http://www.w3.org/2000/svg">
<path d="M17 0.200012C12.4913 0.200012 8.1673 2.17018 4.97918 5.67712C1.79107 9.18405 0 13.9405 0 18.9C0 23.8596 1.79107 28.616 4.97918 32.1229C8.1673 35.6298 12.4913 37.6 17 37.6C17.5636 37.6 18.1041 37.3537 18.5026 36.9154C18.9011 36.477 19.125 35.8825 19.125 35.2625C19.125 34.6426 18.9011 34.048 18.5026 33.6097C18.1041 33.1713 17.5636 32.925 17 32.925C14.4783 32.925 12.0132 32.1025 9.91648 30.5614C7.81975 29.0203 6.18555 26.8299 5.22053 24.2671C4.25552 21.7044 4.00302 18.8845 4.49499 16.1639C4.98695 13.4433 6.20127 10.9443 7.98438 8.98284C9.7675 7.02141 12.0393 5.68566 14.5126 5.1445C16.9858 4.60334 19.5494 4.88108 21.8792 5.9426C24.209 7.00412 26.2002 8.80174 27.6012 11.1081C29.0022 13.4145 29.75 16.1261 29.75 18.9V25.9125C29.75 26.5325 29.5261 27.127 29.1276 27.5654C28.7291 28.0037 28.1886 28.25 27.625 28.25C27.0614 28.25 26.5209 28.0037 26.1224 27.5654C25.7239 27.127 25.5 26.5325 25.5 25.9125V18.9C25.5 17.0508 25.0015 15.243 24.0675 13.7054C23.1335 12.1678 21.806 10.9694 20.2528 10.2617C18.6996 9.55406 16.9906 9.3689 15.3417 9.72967C13.6929 10.0904 12.1783 10.9809 10.9896 12.2886C9.80084 13.5962 8.9913 15.2622 8.66332 17.0759C8.33535 18.8896 8.50368 20.7696 9.14702 22.4781C9.79036 24.1866 10.8798 25.6469 12.2776 26.6743C13.6755 27.7016 15.3189 28.25 17 28.25C18.532 28.2418 20.0328 27.7732 21.3403 26.8949C21.5629 28.6511 22.3833 30.2487 23.6358 31.3649C24.8883 32.4811 26.4793 33.0326 28.0873 32.9078C29.6952 32.783 31.2001 31.9913 32.2977 30.6928C33.3953 29.3942 34.0037 27.6856 34 25.9125V18.9C33.9955 13.942 32.203 9.18839 29.0159 5.68251C25.8287 2.17664 21.5073 0.204901 17 0.200012V0.200012ZM17 23.575C16.1594 23.575 15.3377 23.3008 14.6388 22.7871C13.9399 22.2734 13.3952 21.5433 13.0735 20.6891C12.7518 19.8348 12.6677 18.8948 12.8317 17.988C12.9956 17.0811 13.4004 16.2481 13.9948 15.5943C14.5892 14.9405 15.3464 14.4952 16.1709 14.3148C16.9953 14.1345 17.8498 14.227 18.6264 14.5809C19.403 14.9347 20.0667 15.5339 20.5337 16.3027C21.0007 17.0715 21.25 17.9754 21.25 18.9C21.2492 20.1396 20.8012 21.3283 20.0044 22.2048C19.2075 23.0814 18.1269 23.5742 17 23.575Z" fill="white"/>
</svg>
