<svg width="42" height="40" viewBox="0 0 42 40" fill="none" xmlns="http://www.w3.org/2000/svg">
<path d="M20.7114 0C9.27355 0 0 8.89665 0 19.8725C0 30.847 9.27355 39.7449 20.7114 39.7449C32.1493 39.7449 41.4229 30.847 41.4229 19.8725C41.4229 8.89665 32.1493 0 20.7114 0ZM15.3316 27.6687H11.1065V15.4719H15.3316V27.6687ZM13.2191 13.8064H13.1919C11.7732 13.8064 10.8567 12.8687 10.8567 11.6987C10.8567 10.5026 11.8016 9.59219 13.2463 9.59219C14.6909 9.59219 15.5815 10.5026 15.6087 11.6987C15.6087 12.8699 14.6909 13.8064 13.2191 13.8064ZM30.5662 27.6687H26.3411V21.1431C26.3411 19.5036 25.7301 18.3857 24.2 18.3857C23.0337 18.3857 22.3386 19.1397 22.0331 19.8687C21.9218 20.1296 21.8933 20.4935 21.8933 20.8574V27.6687H17.6694C17.6694 27.6687 17.7251 16.6171 17.6694 15.4719H21.8946V17.1996C22.4551 16.3687 23.4596 15.185 25.7029 15.185C28.4821 15.185 30.5662 16.9288 30.5662 20.6748V27.6687V27.6687Z" fill="black"/>
</svg>
